<?xml version="1.0" encoding="utf-8"?>
<!DOCTYPE svg PUBLIC "-//W3C//DTD SVG 1.1//EN" "http://www.w3.org/Graphics/SVG/1.1/DTD/svg11.dtd">
<svg version="1.1"
	 id="svg2" xmlns:dc="http://purl.org/dc/elements/1.1/" xmlns:cc="http://creativecommons.org/ns#" xmlns:rdf="http://www.w3.org/1999/02/22-rdf-syntax-ns#"
	 xmlns="http://www.w3.org/2000/svg" xmlns:xlink="http://www.w3.org/1999/xlink" x="0px" y="0px"
	 viewBox="-449.5572 -449.5572 1329.1145 1329.1145" enable-background="new -449.5572 -449.5572 1329.1145 1329.1145"
	 xml:space="preserve">
<filter  width="1.26" height="1.26" y="-0.15" id="filter4651" x="-0.15" color-interpolation-filters="sRGB">
	<feGaussianBlur  stdDeviation="1" result="result1" id="feGaussianBlur4653"></feGaussianBlur>
	
		<feTurbulence  type="fractalNoise" baseFrequency="0.1" result="result2" stitchTiles="noStitch" numOctaves="1" id="feTurbulence4655" seed="0">
		</feTurbulence>
	
		<feDisplacementMap  scale="5" in2="result2" in="result1" result="result3" id="feDisplacementMap4657" yChannelSelector="G" xChannelSelector="R">
		</feDisplacementMap>
	<feComposite  operator="atop" in2="result3" id="feComposite4659"></feComposite>
</filter>
<filter  id="filter4396" color-interpolation-filters="sRGB">
	<feFlood  result="flood" id="feFlood4398" flood-color="rgb(0,0,0)" flood-opacity=".97"></feFlood>
	<feComposite  operator="in" in2="SourceGraphic" in="flood" result="composite1" id="feComposite4400"></feComposite>
	<feGaussianBlur  stdDeviation="0.5" result="blur" id="feGaussianBlur4402"></feGaussianBlur>
	<feOffset  dx="1.15741e-014" dy="0.5" result="offset" id="feOffset4404"></feOffset>
	<feComposite  operator="over" in2="offset" in="SourceGraphic" result="composite2" id="feComposite4406"></feComposite>
</filter>
<filter  id="filter4384" color-interpolation-filters="sRGB">
	<feFlood  result="flood" id="feFlood4386" flood-color="rgb(0,0,0)" flood-opacity=".97"></feFlood>
	<feComposite  operator="in" in2="SourceGraphic" in="flood" result="composite1" id="feComposite4388"></feComposite>
	<feGaussianBlur  stdDeviation="0.5" result="blur" id="feGaussianBlur4390"></feGaussianBlur>
	<feOffset  dx="1.15741e-014" dy="0.5" result="offset" id="feOffset4392"></feOffset>
	<feComposite  operator="over" in2="offset" in="SourceGraphic" result="composite2" id="feComposite4394"></feComposite>
</filter>
<g id="layer1" transform="translate(0 -622.36)">
	<path id="path3105" fill="#FFFFFF" d="M325.9821,1181.5897l201.2835,44.3949l48.3093,53.7404c0,0,8.0513,21.0287,49.9199,21.0287
		c14.0995,0,33.8794,14.0654,45.0883,22.1968c10.8253,7.8535,21.1627,27.8427,33.8146,38.5521
		c15.999,13.5416,32.1243,33.8501,48.3093,39.7188c25.4129,23.8215,56.9194,55.1566,80.5135,73.5984l-1206.0812-4.6729
		l-1.6103-439.2495l132.0438,7.0094l133.6511,79.4409l75.6818,61.9161"/>
	<path id="path3818" fill="#EADFC8" d="M66.8071,492.8543l-66.657,669.2601c69.7809-2.9221,231.6827,1.9094,307.99-0.2697
		l-78.5821-671.172c-53.9511-3.406-107.7757-3.8414-162.7411,2.1679L66.8071,492.8543z"/>
	<path id="path2996" d="M47.6233,1279.5824c-17.0152-20.0911-23.1255-39.035-30.0579-47.334
		c-24.9564-30.1761-25.7837-34.145-41.0344-54.2621c-32.0583-32.7906-43.9023-38.4226-71.6798-57.7295
		c-22.0581-20.4912-33.9442-23.3494-52.4896-42.3468c-16.4215-9.4022-28.3861-10.4574-48.4422-28.8478
		c-21.6002-9.2809-6.7095-11.5117-45.1499-18.1196c-32.3198,1.2474-71.6701-8.775-84.5349-7.9539l-46.2095,2.3605
		c-3.2022,8.1285-1.7197-15.2818-1.5457,6.3865c44.8388-0.1853,54.4566,0.7399,83.0378,6.9395
		c31.009,6.7262,56.0639,3.743,65.3835,8.9443c10.5718,6.6327,58.7081,32.9786,77.0396,48.4714
		c36.3552,26.9315,78.4104,53.183,98.9422,69.6901c26.7811,25.1814,53.9348,77.9633,80.8926,115.7053"/>
	<path id="path2998" d="M581.8196,1279.8093c-15.8613-20.9882-36.9579-45.231-51.0735-55.2084
		c-36.8898-12.2753-68.1898-18.7157-98.388-27.1576c-44.8744-12.8218-60.62-12.9344-80.2283-20.047
		c-50.9536-4.2101-125.848-3.9946-202.8487-3.6649s-94.2693,1.3767-119.0008,1.6808c-0.6656,2.6238-3.0013,4.7476,3.7833,6.693
		c0,0,83.3262,0.0963,139.6914,0.568s119.7656,1.3715,151.6294,0.3051c52.94,4.9785,133.5345,38.3577,184.8348,47.4116
		c36.4038,14.0527,52.3406,52.4183,62.8463,52.4183"/>
	<path id="path3002" d="M-197.7861,1354.6649l-75.3157-27.1713l-98.0931-27.8806c-1.9507,5.9561,0.4538,4.2156-1.1179,8.8708
		c18.0716,7.2648,35.8043,8.7535,68.4393,21.2258l66.939,22.1115l79.3857,28.3103c0,0,51.6763,21.4825,82.0689,42.8198
		l35.6196,22.0532c9.3592-0.0713,14.148-0.726,20.1497-1.1116l-61.738-39.317c-18.5953-6.9144-33.5456-18.7699-65.5942-32.6545
		L-197.7861,1354.6649z"/>
	<path id="path3008-1" fill="#FFFFFF" stroke="#000000" stroke-width="4.8607" d="M147.7547,674.7435
		c-79.5996-0.6295-121.2918,9.0047-127.7826,10.6661c-5.9661,9.9438-6.7013,14.2579-3.007,25.158
		c-9.3813,2.7953,56.9615-12.7753,130.4819-12.1936c66.0867,0.5227,132.4457,8.2039,132.4457,8.2039
		c3.5412-9.1859,4.0584-15.5721-0.8694-25.1204c-10.7889-2.3176-61.8611-6.1652-131.2661-6.714H147.7547z"/>
	<g id="path3008" filter="url(#filter4396)">
		<path fill="none" stroke="#000002" stroke-width="2.6496" stroke-linecap="round" stroke-linejoin="round" d="M19.2789,712.5985
			c0,0,51.7696-12.8511,128.5074-12.2455c67.9017,0.5359,130.4431,7.4351,130.4431,7.4351"/>
	</g>
	<path id="path3008-1-7" fill="#FFFFFF" stroke="#000000" stroke-width="4.8607" d="M159.7446,523.6714
		c-73.8186-0.6228-113.2263,5.7369-121.7456,8.0546c-3.6491,9.4205-5.096,14.6234-1.4368,24.4709c0,0,53.1312-8.7114,122.8894-8.123
		c62.7004,0.5289,90.7113,2.9553,99.762,2.9553c2.3318-6.0208,0.8437-12.325-2.2196-22.5413c0,0-32.9041-4.2742-97.2506-4.8171
		L159.7446,523.6714z"/>
	<g id="path3008-4" filter="url(#filter4384)">
		<path fill="none" stroke="#000002" stroke-width="2.6496" stroke-linecap="round" stroke-linejoin="round" d="M39.2404,559.5474
			c0,0,46.3619-10.5499,115.6604-9.9443c61.3223,0.5359,103.0832,3.9979,103.0832,3.9979"/>
	</g>
	<path id="path4004" fill="#4758AE" d="M217.4903,418.9061l1.0617,23.2879c-43.9898-2.4051-87.9309-3.0081-136.8981,1.1906
		l0.4899-24.4046c48.8408-4.2223,95.2285-3.1509,135.3459-0.0742L217.4903,418.9061z"/>
	<path id="path3896" fill="#484848" d="M105.5635,256.7191c10.8171-10.481,19.3111-19.742,20.2327-34.7641
		c0.8586-13.997,8.3352-27.2802,23.9596-27.426c18.5726-0.1735,26.0497,13.5981,26.622,26.2671
		c0.9347,20.6906,8.1991,27.8611,15.4407,35.153c23.2406,23.3973,91.0677,56.5078,54.8422,49.0578
		c-75.5555-15.537-111.4634-17.6718-199.6633,0c-38.2282,7.6592,42.4181-32.6384,58.5688-48.2867L105.5635,256.7191z"/>
	<path id="path3008-4-0-9" fill="#484848" d="M149.213,445.5753c-44.1907,0.3809-59.852,2.5738-91.7742,5.3309
		c-4.9492,15.1863-7.9337,22.3455,1.2618,37.0519c31.3259-2.7055,47.5187-3.9929,90.6044-4.3643
		c49.8129-0.4296,64.0161,1.8801,97.0821,5.1511c6.5277-17.0694,5.5231-22.7642,1.3221-37.5735
		c-33.1957-3.284-48.0793-6.0332-98.495-5.5987L149.213,445.5753z"/>
	<path id="path3008-4-0-9-4" fill="#484848" d="M151.9026,388.1213c-45.7072-0.0732-64.4859,2.533-89.5544,5.8398
		c-1.8596,10.1975-3.5963,14.4112,3.5574,22.1158c24.6284-3.2486,41.1641-4.3968,85.9963-4.3252
		c43.6041,0.07,55.7398,1.3758,81.0967,3.8845c7.9172-7.7666,7.2399-14.1629,1.4957-22.873
		c-24.3404-2.408-37.6611-4.5698-82.5906-4.6416L151.9026,388.1213z"/>
	
		<path id="path3008-4-0-9-4-8" fill="none" stroke="#484848" stroke-width="4.8607" stroke-linecap="round" stroke-linejoin="round" d="
		M60.0021,377.7841c0,0,33.0758-8.3688,94.1592-7.7636c54.0515,0.5358,84.2757,7.6242,84.2757,7.6242"/>
	<path id="path3980" fill="none" stroke="#484848" stroke-width="4.8607" stroke-linecap="round" stroke-linejoin="round" d="
		M65.6081,377.2333v25.1083"/>
	<path id="path3982" fill="none" stroke="#484848" stroke-width="4.8607" stroke-linecap="round" stroke-linejoin="round" d="
		M81.9726,374.4788l0.1559,25.5611"/>
	<path id="path3984" fill="none" stroke="#484848" stroke-width="4.8607" stroke-linecap="round" stroke-linejoin="round" d="
		M99.1472,371.854l1.0649,27.0397"/>
	<path id="path3986" fill="none" stroke="#484848" stroke-width="4.8607" stroke-linecap="round" stroke-linejoin="round" d="
		M117.8126,371.2707l1.0649,24.9016"/>
	<path id="path3988" fill="none" stroke="#484848" stroke-width="4.8607" stroke-linecap="round" stroke-linejoin="round" d="
		M140.172,370.1042l0.5325,26.4467"/>
	<path id="path3990" fill="none" stroke="#484848" stroke-width="4.8607" stroke-linecap="round" stroke-linejoin="round" d="
		M162.5314,370.3959l-0.5324,26.5598"/>
	<path id="path3992" fill="none" stroke="#484848" stroke-width="4.8607" stroke-linecap="round" stroke-linejoin="round" d="
		M184.34,371.9837l-0.5324,24.5815"/>
	<path id="path3994" fill="none" stroke="#484848" stroke-width="4.8607" stroke-linecap="round" stroke-linejoin="round" d="
		M204.4311,372.8263l-0.3764,23.7428"/>
	<path id="path3996" fill="none" stroke="#484848" stroke-width="3.2405" stroke-linecap="round" stroke-linejoin="round" d="
		M234.4057,377.6222v22.4044"/>
	<g id="path4006" filter="url(#filter4651)">
		<polygon opacity="0.4815" fill="#B5B5B5" points="121.5061,713.2061 134.2847,954.2394 164.9747,1144.7936 22.0242,1145.7051 
			40.0603,874.4261 59.5979,719.1 		"/>
	</g>
	<g id="path4022" filter="url(#filter4651)">
		<path opacity="0.4815" fill="#B5B5B5" d="M63.1105,560.0539L50.3095,674.2244l73.7924-7.6479l-12.0476-112.5299
			c-17.702,1.7951-35.4184,1.6338-48.9452,6.0089L63.1105,560.0539z"/>
	</g>
	
		<linearGradient id="path4036_1_" gradientUnits="userSpaceOnUse" x1="44.9514" y1="1489.7719" x2="35.7808" y2="1487.8243" gradientTransform="matrix(1.1168 0 -0.2991 -1.3883 560.4268 2279.6831)">
		<stop  offset="0" style="stop-color:#898989"/>
		<stop  offset="1" style="stop-color:#626464;stop-opacity:0"/>
	</linearGradient>
	<path id="path4036" fill="url(#path4036_1_)" d="M167.6974,213.0021c2.2429,7.5522,0.4671,13.6745-3.9664,13.6745
		c-4.4334,0-9.8457-6.1223-12.0886-13.6745c-2.2429-7.5522-0.4671-13.6745,3.9664-13.6745c4.4212,0,9.819,6.09,12.0729,13.6215"/>
	
		<linearGradient id="path4048_1_" gradientUnits="userSpaceOnUse" x1="130.4474" y1="1291.521" x2="121.7629" y2="1277.7942" gradientTransform="matrix(1 0 0 -1 9.881660e-008 1676.72)">
		<stop  offset="0" style="stop-color:#898989"/>
		<stop  offset="1" style="stop-color:#626464;stop-opacity:0"/>
	</linearGradient>
	<path id="path4048" fill="url(#path4048_1_)" d="M165.4803,249.3632c11.7562-1.9063,19.093,6.3475,25.8044,13.1533
		c10.3314,9.7454,24.7354,16.8156,36.7376,25.4946c4.712,3.407,8.8164,5.2725,10.4551,11.249
		c-14.0699,0.5396-25.5857-3.338-39.9068-9.618c-13.9377-6.1121-26.1171-15.5777-36.4264-26.634
		c-5.0412-5.4068-2.586-12.1817,3.3348-13.6443L165.4803,249.3632z"/>
	<path id="path4088" d="M166.1284,811.9785l-0.4477,42.5899l31.242-0.3203l-0.5324-42.8134L166.1284,811.9785z"/>
	<g id="path4621" filter="url(#filter4651)">
		<path opacity="0.4815" fill="#B5B5B5" d="M66.0371,498.4241l-0.1184,21.2319l41.7371-4.0214
			c-0.4383-1.0464,2.0821-8.9796,2.5339-9.5535l-7.4094-10.134c-12.0379-0.1323-17.9086,0.5911-33.3529,2.1921
			c-2.3684,0.246-3.1084,0.7663-3.391,0.2849L66.0371,498.4241z"/>
	</g>
	<path id="path4528" d="M72.8992,498.0067c0.6977,4.1972,0.5591,6.1744,0.5591,10.2229l19.6734-0.8194l0.1941-10.8159
		L72.8992,498.0067z"/>
	<path id="path4528-8" d="M118.4283,494.8309c0.6977,4.1972,0.5592,7.2668,0.5592,11.3154l20.0499-0.5463l-0.1824-11.089
		L118.4283,494.8309z"/>
	<path id="path4528-2" d="M158.3188,494.2801c0.6977,4.1972,0.9357,7.2668,0.9357,11.3155l19.2972-0.2732l-0.1825-11.3621
		L158.3188,494.2801z"/>
	<path id="path4528-4" d="M199.3759,494.2801c0.6976,4.1972,0.9357,7.2668,0.9357,11.3155l20.0499,0.5463l0.1941-10.5427
		L199.3759,494.2801z"/>
	<path id="path4566" fill="none" stroke="#484848" stroke-width="4.8607" d="M220.0179,373.3771v25.1083"/>
	<g id="path4599" filter="url(#filter4651)">
		<polygon fill="#FEFB51" points="108.1518,304.6876 110.3626,360.5408 192.1582,360.5408 192.1582,304.6876 		"/>
	</g>
	<path id="path4769" fill="#F2F2F2" d="M67.3448,1311.941l74.6393,15.5775l38.2432,90.2374l74.2856,31.532l-85.6856-8.3831
		l-65.6031-9.5244L2.4349,1441.5292l-116.7353-78.1729l91.7485-32.6342L67.3448,1311.941z M-152.4133,1333.2231l-215.5098-72.2587
		c-7.209-99.4426-4.4086-110.3156-1.0065-212.9279c67.8877,5.3673,95.08,16.2223,144.5697,25.932l67.362,56.6498l100.4543,58.6075
		l57.7348,91.4222c-33.2962,7.292-53.8728,6.0051-88.4262,22.868L-152.4133,1333.2231z"/>
	<g id="path4773" filter="url(#filter4651)">
		<path opacity="0.9124" fill="#E4E4E4" d="M-349.6181,1092.4578l111.4913,4.8958c0,0,67.3108,74.7871,68.5671,100.3101
			c-38.9501,9.1154-68.3437,1.2317-114.8322,41.3379l-51.4113-47.225L-349.6181,1092.4578z"/>
	</g>
	<g id="path4773-4" filter="url(#filter4651)">
		<polygon opacity="0.9124" fill="#E4E4E4" points="-86.0797,1359.301 83.1278,1336.7715 150.8481,1416.1222 14.263,1405.2008 
			-42.3877,1374.4167 		"/>
	</g>
	<g id="path4769-9" filter="url(#filter4651)">
		<path fill="#F2F2F2" d="M25.849,1203.6509l278.6748,2.0117l198.3494,41.5101c0,0,30.8366,26.592,41.2025,41.1759
			c-44.1158,6.8063-58.3629,16.7983-90.6131,27.813c-72.2011,34.8264-136.841,69.5378-164.3963,88.698l-71.9312-16.2864
			l-40.085-97.7041l-100.5567-24.4976L25.849,1203.6509z"/>
	</g>
	<g id="path4773-46" filter="url(#filter4651)">
		<path opacity="0.9124" fill="#E4E4E4" d="M268.2162,1267.1465l81.4699-24.6394l83.0752,45.6487
			c-58.8469,7.2008-115.1206,20.4235-146.524,77.5381l-47.3074-3.4958L268.2162,1267.1465z"/>
	</g>
	<g id="path4769-9-1" filter="url(#filter4651)">
		<path fill="#F2F2F2" d="M465.4117,1352.5498l159.8317-40.8011l82.8611,72.9304c33.3087,24.8456,54.2451,54.4656,71.1309,76.6267
			c-25.533-0.7178-93.2049-17.0664-145.5142-16.6869s-89.2545,17.4867-127.6234,17.8044l-86.0253-18.9373l-89.971-6.3375
			L465.4117,1352.5498z"/>
	</g>
	<g id="path4773-0" filter="url(#filter4651)">
		<polygon opacity="0.9124" fill="#E4E4E4" points="414.1352,1408.2477 612.6382,1343.9757 707.5554,1428.4779 610.4141,1411.1135 
			477.8957,1439.5212 		"/>
	</g>
	<g id="path4769-9-3" filter="url(#filter4651)">
		<path fill="#F2F2F2" d="M-370.017,1347.1489c95.5686,15.6332,129.3775,18.7212,210.7916,53.9222l90.762,48.312
			c-38.8612-0.6276-49.2477-3.2904-85.1923-3.2429c-79.4087,0-87.3746-0.2905-125.4225-2.683l-86.6022,4.4297
			c-0.8463-39.488,0.592-58.6652-4.3356-100.7422L-370.017,1347.1489z"/>
	</g>
	<g id="path4773-6" filter="url(#filter4651)">
		<polygon opacity="0.9124" fill="#E4E4E4" points="-342.2477,1373.1412 -183.8259,1406.3402 -200.011,1430.0483 
			-258.723,1432.8182 -332.3618,1428.59 		"/>
	</g>
	<path id="path4897" fill="#FFFFFF" stroke="#000000" stroke-width="4.8607" stroke-linejoin="round" d="M181.5855,1149.3146
		c0,0,1.0792-42.2529,0-80.4713c24.9564-28.1646,38.8212-28.1646,72.0946-2.0117l2.0797,81.4758L181.5855,1149.3146z"/>
	<path id="path4899" d="M182.9142,1148.2126l0.2874-80.251c18.1225-19.1831,28.0741-29.8223,62.4574,2.7229l2.4858,76.816
		L182.9142,1148.2126z"/>
	<path id="path4901" fill="#FF0000" fill-opacity="0.3502" stroke="#000000" stroke-width="3.9745" stroke-opacity="0.3456" d="
		M162.2862,331.6407c0,5.1063-5.9256,9.2462-13.2351,9.2462s-13.2351-4.1395-13.2351-9.2462c0-5.1063,5.9256-9.2462,13.2351-9.2462
		S162.2862,326.5341,162.2862,331.6407z"/>
	<path id="path3876" d="M612.183,1289.4337l-78.757,19.5566c0,0-39.0901,10.2601-73.3454,22.9689
		c-38.536,16.4021-66.0122,31.0657-90.5266,47.2269c-25.3712,16.7264-50.9341,31.9669-73.0085,45.6781l9.3265,2.6818
		l81.5796-48.4583l56.9712-31.4089c27.9554-9.1271,66.3622-25.2318,98.1611-32.4537c31.7997-7.2224,28.6876-8.0039,59.7775-15.1121
		c19.99-0.3224,39.1712,9.4058,39.1712,9.4058l47.4312,36.8445c0,0,25.668,25.7991,56.3361,51.4948
		c39.0674,31.0468,53.5751,45.3898,81.1842,71.1808c10.0903,2.6436,15.5901,3.2844,12.0724-1.36l-101.447-93.2195
		c0,0-88.7411-72.6649-94.8656-77.3378c-7.9959-0.9668-30.0573-7.6891-30.0573-7.6891L612.183,1289.4337z"/>
	<path id="path3900" d="M281.0688,1427.7705c0,0-48.6594-10.9066-66.9098-17.5238c-16.5531-9.4993-28.2523-39.693-40.4771-71.1549
		c-2.5011-12.3032-7.2594-28.7102-14.7278-32.3868c-19.7194-0.3928-78.7085-15.5594-93.4722-16.781l-32.2494,3.3378l-72.2955,16.91
		c15.0291-4.5587-66.3201,21.9088-50.0365,15.9844l-67.5061,29.3585l9.4668,4.8505l67.1658-27.8158l84.9561-21.4216l46.0799-10.2083
		l22.6151-1.6005c0,0,66.3654,16.0729,80.5782,16.3242c5.7046,7.6035,7.7004,32.8619,22.8501,68.0862
		c7.3809,13.7976,15.0566,26.5844,19.6079,28.0474c23.7231,14.4573,44.3333,15.0813,73.4135,21.5581
		c11.5634,0.0325,13.9721,9.316,19.1021,8.3005l5.3213-3.3761L281.0688,1427.7705z"/>
	<path id="path3108" fill="none" stroke="#000000" stroke-width="8.1012" stroke-linecap="round" d="M221.3465,309.5846
		l1.1803,53.7048"/>
	<path id="path3880" fill="none" stroke="#000000" stroke-width="8.1012" stroke-linecap="round" d="M77.922,308.9948
		l0.5902,51.9355"/>
	<path id="path3884" fill="none" stroke="#000000" stroke-width="8.1012" stroke-linecap="round" d="M66.7099,423.4881
		l-1.1803,20.0658"/>
	<path id="path3886" fill="none" stroke="#000000" stroke-width="8.1012" stroke-linecap="round" d="M233.1419,422.8983
		l1.3235,18.2952"/>
	<path id="path3888" fill="none" stroke="#000000" stroke-width="8.1012" stroke-linecap="round" d="M57.28,494.8957
		l-3.5409,24.7872"/>
	<path id="path3890" fill="none" stroke="#000000" stroke-width="8.1012" stroke-linecap="round" d="M240.2386,496.0623
		l2.3607,21.8361"/>
	<path id="path3892" fill="none" stroke="#000000" stroke-width="8.1012" stroke-linecap="round" d="M46.1003,570.0753
		L33.9267,671.2502"/>
	<path id="path3894" fill="none" stroke="#000000" stroke-width="8.1012" stroke-linecap="round" d="M250.4461,564.8581
		l12.1736,102.2119"/>
	<path id="path3897" fill="none" stroke="#000000" stroke-width="8.1012" stroke-linecap="round" d="M29.509,721.925
		l-44.8161,436.722"/>
	<path id="path3901" fill="none" stroke="#000000" stroke-width="8.1012" stroke-linecap="round" d="M268.4633,718.4254
		l53.4164,438.569"/>
</g>
</svg>
