<?xml version="1.0" encoding="UTF-8" standalone="no"?>
<!-- Created with Inkscape (http://www.inkscape.org/) -->

<svg
   version="1.1"
   id="svg2"
   width="1004.2864"
   height="412.85306"
   viewBox="0 0 1004.2864 412.85306"
   sodipodi:docname="rossonet-logo-02.ai"
   inkscape:export-filename="rossonet-logo-02.ai.png"
   inkscape:export-xdpi="96"
   inkscape:export-ydpi="96"
   xmlns:inkscape="http://www.inkscape.org/namespaces/inkscape"
   xmlns:sodipodi="http://sodipodi.sourceforge.net/DTD/sodipodi-0.dtd"
   xmlns="http://www.w3.org/2000/svg"
   xmlns:svg="http://www.w3.org/2000/svg">
  <defs
     id="defs6">
    <clipPath
       clipPathUnits="userSpaceOnUse"
       id="clipPath18">
      <path
         d="M 0,355.28 H 841.89 V 0 H 0 Z"
         id="path16" />
    </clipPath>
  </defs>
  <sodipodi:namedview
     id="namedview4"
     pagecolor="#ffffff"
     bordercolor="#666666"
     borderopacity="1.0"
     inkscape:showpageshadow="2"
     inkscape:pageopacity="0.0"
     inkscape:pagecheckerboard="0"
     inkscape:deskcolor="#d1d1d1"
     showgrid="false" />
  <g
     id="g10"
     inkscape:groupmode="layer"
     inkscape:label="Page 1"
     transform="matrix(1.3333333,0,0,-1.3333333,-54.584702,446.24229)">
    <g
       id="g12">
      <g
         id="g14"
         clip-path="url(#clipPath18)">
        <g
           id="g20"
           transform="translate(416.8872,191.3767)">
          <path
             d="m 0,0 c -6.127,0 -11.396,-2.276 -15.808,-6.827 -4.411,-4.552 -6.617,-10.049 -6.617,-16.49 0,-4.167 1.006,-8.062 3.02,-11.686 2.013,-3.623 4.735,-6.407 8.166,-8.35 3.431,-1.943 7.177,-2.915 11.239,-2.915 4.131,0 7.904,0.972 11.318,2.915 3.413,1.943 6.118,4.727 8.114,8.35 1.995,3.624 2.993,7.519 2.993,11.686 0,6.441 -2.206,11.938 -6.617,16.49 C 11.397,-2.276 6.126,0 0,0 m 0,7.248 c 8.858,0 16.21,-3.204 22.057,-9.611 5.286,-5.882 7.931,-12.832 7.931,-20.85 0,-8.017 -2.802,-15.028 -8.404,-21.033 C 15.983,-50.251 8.788,-53.252 0,-53.252 c -8.823,0 -16.027,3.001 -21.611,9.006 -5.585,6.005 -8.376,13.016 -8.376,21.033 0,7.984 2.643,14.916 7.93,20.797 C -16.21,4.026 -8.858,7.248 0,7.248"
             style="fill:#3f3b3c;fill-opacity:1;fill-rule:nonzero;stroke:none"
             id="path22" />
        </g>
        <g
           id="g24"
           transform="translate(492.6934,190.8518)">
          <path
             d="m 0,0 -4.727,-4.937 c -3.991,3.852 -7.86,5.777 -11.606,5.777 -2.416,0 -4.482,-0.788 -6.197,-2.363 -1.716,-1.576 -2.574,-3.449 -2.574,-5.62 0,-1.82 0.718,-3.57 2.154,-5.251 1.4,-1.786 4.358,-3.834 8.875,-6.145 5.532,-2.836 9.277,-5.585 11.239,-8.245 1.925,-2.696 2.888,-5.724 2.888,-9.086 0,-4.691 -1.655,-8.673 -4.963,-11.947 -3.309,-3.274 -7.449,-4.91 -12.42,-4.91 -3.326,0 -6.504,0.709 -9.531,2.127 -3.03,1.418 -5.524,3.404 -7.485,5.96 l 4.674,5.305 c 3.781,-4.273 7.79,-6.408 12.027,-6.408 2.941,0 5.453,0.953 7.536,2.863 2.083,1.908 3.125,4.139 3.125,6.696 0,2.135 -0.683,4.025 -2.048,5.672 -1.365,1.644 -4.464,3.71 -9.296,6.196 -5.217,2.626 -8.753,5.27 -10.608,7.931 -1.891,2.59 -2.836,5.566 -2.836,8.927 0,4.376 1.497,8.009 4.49,10.898 2.994,2.888 6.749,4.332 11.264,4.332 C -10.731,7.772 -5.393,5.181 0,0"
             style="fill:#3f3b3c;fill-opacity:1;fill-rule:nonzero;stroke:none"
             id="path26" />
        </g>
        <g
           id="g28"
           transform="translate(537.9336,190.8518)">
          <path
             d="m 0,0 -4.727,-4.937 c -3.991,3.852 -7.86,5.777 -11.606,5.777 -2.416,0 -4.482,-0.788 -6.197,-2.363 -1.716,-1.576 -2.574,-3.449 -2.574,-5.62 0,-1.82 0.717,-3.57 2.154,-5.251 1.399,-1.786 4.358,-3.834 8.875,-6.145 5.532,-2.836 9.277,-5.585 11.239,-8.245 1.925,-2.696 2.888,-5.724 2.888,-9.086 0,-4.691 -1.655,-8.673 -4.963,-11.947 -3.309,-3.274 -7.449,-4.91 -12.42,-4.91 -3.326,0 -6.504,0.709 -9.532,2.127 -3.029,1.418 -5.524,3.404 -7.484,5.96 l 4.674,5.305 c 3.781,-4.273 7.79,-6.408 12.027,-6.408 2.941,0 5.453,0.953 7.536,2.863 2.083,1.908 3.125,4.139 3.125,6.696 0,2.135 -0.683,4.025 -2.048,5.672 -1.365,1.644 -4.464,3.71 -9.296,6.196 -5.217,2.626 -8.753,5.27 -10.608,7.931 -1.891,2.59 -2.836,5.566 -2.836,8.927 0,4.376 1.497,8.009 4.49,10.898 2.993,2.888 6.749,4.332 11.264,4.332 C -10.731,7.772 -5.393,5.181 0,0"
             style="fill:#3f3b3c;fill-opacity:1;fill-rule:nonzero;stroke:none"
             id="path30" />
        </g>
        <g
           id="g32"
           transform="translate(581.4414,191.3767)">
          <path
             d="m 0,0 c -6.127,0 -11.396,-2.276 -15.808,-6.827 -4.411,-4.552 -6.617,-10.049 -6.617,-16.49 0,-4.167 1.006,-8.062 3.02,-11.686 2.012,-3.623 4.735,-6.407 8.167,-8.35 3.43,-1.943 7.176,-2.915 11.238,-2.915 4.131,0 7.904,0.972 11.317,2.915 3.414,1.943 6.119,4.727 8.115,8.35 1.995,3.624 2.993,7.519 2.993,11.686 0,6.441 -2.206,11.938 -6.617,16.49 C 11.396,-2.276 6.127,0 0,0 m 0,7.248 c 8.857,0 16.21,-3.204 22.058,-9.611 5.286,-5.882 7.929,-12.832 7.929,-20.85 0,-8.017 -2.801,-15.028 -8.402,-21.033 C 15.982,-50.251 8.788,-53.252 0,-53.252 c -8.823,0 -16.026,3.001 -21.611,9.006 -5.584,6.005 -8.376,13.016 -8.376,21.033 0,7.984 2.642,14.916 7.929,20.797 5.847,6.442 13.2,9.664 22.058,9.664"
             style="fill:#3f3b3c;fill-opacity:1;fill-rule:nonzero;stroke:none"
             id="path34" />
        </g>
        <g
           id="g36"
           transform="translate(676.1006,185.1535)">
          <path
             d="m 0,0 c -1.575,3.693 -4.211,6.634 -7.904,8.823 -3.695,2.188 -7.712,3.282 -12.053,3.282 -0.977,0.019 -4.739,0.019 -5.708,0 -4.34,0 -8.358,-1.094 -12.052,-3.282 -3.694,-2.189 -6.329,-5.13 -7.905,-8.823 -1.575,-3.694 -2.363,-9.479 -2.363,-17.357 v -29.62 h 7.353 v 27.467 c 0,6.651 0.28,11.098 0.839,13.339 0.876,3.816 2.61,6.521 5.2,8.114 2.26,1.39 5.467,2.172 9.617,2.35 l 2.625,0.036 c 4.985,-0.019 8.762,-0.812 11.323,-2.386 2.59,-1.593 4.323,-4.298 5.199,-8.114 0.559,-2.241 0.84,-6.688 0.84,-13.339 v -27.467 h 7.352 v 29.62 C 2.363,-9.479 1.575,-3.694 0,0"
             style="fill:#c72126;fill-opacity:1;fill-rule:nonzero;stroke:none"
             id="path38" />
        </g>
        <g
           id="g40"
           transform="translate(745.9717,174.1511)">
          <path
             d="m 0,0 c -0.98,3.956 -2.416,7.116 -4.307,9.479 -1.89,2.364 -4.393,4.271 -7.509,5.725 -3.117,1.452 -6.39,2.179 -9.821,2.179 -5.637,0 -10.486,-1.82 -14.548,-5.462 C -39.125,9.26 -41.35,5.286 -42.854,0 Z m 0,-15.492 6.197,-3.309 c -1.996,-4.027 -4.342,-7.265 -7.037,-9.716 -2.697,-2.451 -5.724,-4.315 -9.086,-5.593 -3.361,-1.279 -7.16,-1.916 -11.396,-1.916 -9.383,0 -16.719,3.072 -22.005,9.216 -5.287,6.145 -7.93,13.085 -7.93,20.823 0,7.317 2.24,13.829 6.722,19.537 5.672,7.282 13.287,10.923 22.846,10.923 9.767,0 17.592,-3.728 23.474,-11.186 C 5.952,8.035 8.053,1.488 8.088,-6.354 h -51.73 c 0.14,-6.723 2.276,-12.229 6.408,-16.517 4.13,-4.289 9.224,-6.434 15.282,-6.434 2.94,0 5.794,0.517 8.56,1.55 2.765,1.032 5.121,2.389 7.064,4.069 1.943,1.681 4.052,4.413 6.328,8.194"
             style="fill:#3f3b3c;fill-opacity:1;fill-rule:nonzero;stroke:none"
             id="path42" />
        </g>
        <g
           id="g44"
           transform="translate(794.1533,140.1726)">
          <path
             d="m 0,0 c -3.853,-1.471 -7.283,-2.153 -10.294,-2.048 -5.672,0.315 -10.153,3.256 -13.444,8.822 -1.996,3.501 -2.959,7.353 -2.889,11.554 v 59.818 h 7.458 V 50.312 H -5.462 V 43.957 H -19.117 V 19.589 c -0.21,-6.023 1.82,-10.661 6.093,-13.917 3.5,-1.647 7.071,-1.488 10.712,0.473 C -1.366,3.519 -0.596,1.471 0,0"
             style="fill:#3f3b3c;fill-opacity:1;fill-rule:nonzero;stroke:none"
             id="path46" />
        </g>
        <g
           id="g48"
           transform="translate(349.9844,66.4854)">
          <path
             d="m 0,0 c -6.759,4.181 -14.976,4.023 -21.403,0.298 -0.091,-0.026 -0.18,-0.059 -0.264,-0.111 -20.605,-12.884 -44.129,-18.812 -70.948,-15.885 -20.108,2.193 -38.256,8.07 -53.039,19.878 -8.279,5.72 -14.881,13.404 -19.326,22.21 -1.744,2.984 -2.964,6.036 -3.713,9.179 -3.228,10.369 -3.68,21.737 -0.68,33.004 8.47,31.82 41.131,50.748 72.951,42.278 7.466,-1.988 14.212,-5.321 20.071,-9.649 -3.533,13.404 -11.996,25.536 -24.715,33.404 -26.349,16.299 -60.92,8.152 -77.219,-18.196 -8.83,-14.275 -10.471,-30.962 -5.943,-45.85 3.525,-22.45 13.789,-44.576 28.949,-60.224 0.024,-0.032 0.042,-0.066 0.071,-0.097 0.154,-0.159 0.315,-0.31 0.471,-0.468 0.139,-0.141 0.272,-0.289 0.411,-0.428 l 0.011,0.01 c 1.224,-1.228 2.47,-2.425 3.756,-3.563 17.835,-15.791 38.437,-27.371 60.573,-35.979 27.259,-10.601 54.854,-14.624 82.526,-8.096 0.1,0.023 0.19,0.065 0.274,0.115 5.578,1.027 10.718,4.317 13.937,9.521 C 12.798,-18.874 9.775,-6.047 0,0"
             style="fill:#8a1928;fill-opacity:1;fill-rule:nonzero;stroke:none"
             id="path50" />
        </g>
        <g
           id="g52"
           transform="translate(293.9536,191.7402)">
          <path
             d="m 0,0 c 0.005,0.04 0.018,0.076 0.019,0.118 0.003,0.222 -0.003,0.443 0,0.665 0.002,0.197 0.013,0.396 0.013,0.593 L 0.019,1.377 c 0.006,1.733 -0.024,3.461 -0.123,5.176 -1.375,23.78 -7.687,46.556 -17.188,68.323 -11.7,26.806 -28.302,49.212 -52.44,64.235 -0.087,0.055 -0.181,0.088 -0.275,0.113 -4.661,3.232 -10.618,4.558 -16.578,3.172 -11.196,-2.603 -18.162,-13.79 -15.558,-24.985 1.8,-7.742 7.705,-13.458 14.878,-15.39 0.081,-0.046 0.168,-0.085 0.265,-0.108 23.664,-5.53 44.453,-18.034 61.285,-39.117 13.668,-17.12 22.653,-35.655 23.669,-56.352 0.704,-6.962 0.196,-14.164 -1.71,-21.326 -0.026,-0.097 -0.057,-0.19 -0.084,-0.286 -0.141,-0.667 -0.286,-1.335 -0.444,-2.007 -1.02,-4.337 -2.727,-8.134 -5.063,-11.517 -12.986,-23.217 -40.472,-35.625 -67.36,-28.467 -24.384,6.49 -41.18,27.191 -43.894,50.829 -0.569,-0.819 -1.122,-1.656 -1.653,-2.515 -16.298,-26.348 -8.152,-60.92 18.196,-77.218 24.891,-15.397 57.113,-8.968 74.342,14.002 C -12.032,-52.617 -0.481,-25.557 0,0"
             style="fill:#ee242f;fill-opacity:1;fill-rule:nonzero;stroke:none"
             id="path54" />
        </g>
        <g
           id="g56"
           transform="translate(248.918,201.0913)">
          <path
             d="m 0,0 c -0.537,0.332 -1.082,0.638 -1.625,0.949 -21.709,14.988 -50.223,22.823 -75.711,19.803 -0.04,0 -0.078,0.008 -0.12,0.003 -0.22,-0.026 -0.438,-0.063 -0.659,-0.091 -0.196,-0.025 -0.394,-0.041 -0.589,-0.067 l 10e-4,-0.014 c -1.718,-0.229 -3.426,-0.495 -5.111,-0.827 -23.371,-4.603 -45.073,-13.961 -65.343,-26.34 -24.96,-15.245 -44.894,-34.747 -56.487,-60.707 -0.042,-0.094 -0.063,-0.191 -0.074,-0.288 -2.567,-5.058 -3.069,-11.14 -0.883,-16.855 4.105,-10.736 16.137,-16.112 26.873,-12.007 7.424,2.838 12.282,9.467 13.218,16.836 0.034,0.088 0.061,0.179 0.071,0.278 2.252,24.197 11.807,46.495 30.398,66.044 14.01,14.732 29.778,25.633 48.251,30.185 8.419,2.643 17.5,3.448 26.657,2.061 0.465,-0.037 0.927,-0.069 1.395,-0.113 4.895,-0.464 9.254,-1.843 13.233,-4.043 26.808,-11.451 41.847,-41.138 34.128,-70.134 -5.724,-21.502 -22.498,-37.1 -42.589,-42.353 25.741,-13.147 57.687,-4.556 73.162,20.462 C 34.495,-50.87 26.348,-16.298 0,0"
             style="fill:#c72125;fill-opacity:1;fill-rule:nonzero;stroke:none"
             id="path58" />
        </g>
        <g
           id="g60"
           transform="translate(375.436,197.259)">
          <path
             d="m 0,0 c -4.341,0 -8.358,-1.095 -12.053,-3.283 -3.693,-2.188 -6.329,-5.129 -7.904,-8.822 -1.575,-3.695 -2.363,-9.479 -2.363,-17.357 v -29.621 h 7.352 v 27.467 c 0,6.652 0.28,11.099 0.84,13.34 0.876,3.816 2.609,6.52 5.199,8.114 2.261,1.389 5.468,2.172 9.618,2.349 l 2.176,0.03 2.619,7.786 C 4.255,0.018 0.906,0.017 0,0"
             style="fill:#c72126;fill-opacity:1;fill-rule:nonzero;stroke:none"
             id="path62" />
        </g>
      </g>
    </g>
  </g>
</svg>
